/* XPM */
static char *f360a43839d1413abb95320fa7124025[] = {
/* columns rows colors chars-per-pixel */
"64 64 196 2 ",
"   c #010001",
".  c #02060B",
"X  c #0F0A0B",
"o  c #050E1C",
"O  c #06101C",
"+  c #181315",
"@  c #1F1B1C",
"#  c #211D1E",
"$  c #000C20",
"%  c #011220",
"&  c #0B1620",
"*  c #0E1A20",
"=  c #141C20",
"-  c #1B1D20",
";  c #231F20",
":  c #262121",
">  c #282324",
",  c #D32E00",
"<  c #D43300",
"1  c #D63C04",
"2  c #D83F07",
"3  c #D63F08",
"4  c #D74503",
"5  c #D84407",
"6  c #D7420E",
"7  c #D8420B",
"8  c #D9550C",
"9  c #D84610",
"0  c #DA4A14",
"q  c #D64B1F",
"w  c #D94D1E",
"e  c #D95515",
"r  c #D5541F",
"t  c #DD531D",
"y  c #DA5B1F",
"u  c #E44F1F",
"i  c #EC521F",
"p  c #E65F1F",
"a  c #F8591E",
"s  c #DF6B00",
"d  c #DF7109",
"f  c #DB621E",
"g  c #DD6C1F",
"h  c #E17A0E",
"j  c #E9661F",
"k  c #FD671F",
"l  c #FF6F1F",
"z  c #E27D16",
"x  c #F4731F",
"c  c #FF741F",
"v  c #DA4F21",
"b  c #DB5423",
"n  c #DD5A25",
"m  c #DC5629",
"M  c #DD5B2B",
"N  c #DD5E32",
"B  c #DB6424",
"V  c #DD6B25",
"C  c #DD632A",
"Z  c #DE6C2A",
"A  c #DE7524",
"S  c #DE7E21",
"D  c #DF712A",
"F  c #DF6335",
"G  c #DE643C",
"H  c #DF6A3B",
"J  c #DF7130",
"K  c #E0622F",
"L  c #E07324",
"P  c #E27C24",
"I  c #ED7921",
"U  c #E07529",
"Y  c #E27C2A",
"T  c #FF7720",
"R  c #E06535",
"E  c #E06638",
"W  c #E16B3C",
"Q  c #E17632",
"!  c #E27B32",
"~  c #DF6942",
"^  c #E06D45",
"/  c #E06E4A",
"(  c #E47343",
")  c #E2744C",
"_  c #E67A4A",
"`  c #E17450",
"'  c #E37A56",
"]  c #E37D5C",
"[  c #E68C00",
"{  c #E58C0D",
"}  c #E89303",
"|  c #E8920C",
" . c #E3811B",
".. c #EB9D12",
"X. c #E9981D",
"o. c #F99D1F",
"O. c #EBA100",
"+. c #EEAB00",
"@. c #EFB200",
"#. c #EFB30B",
"$. c #F0B501",
"%. c #F1BB02",
"&. c #F0B60A",
"*. c #EBA114",
"=. c #EBA01F",
"-. c #EFB615",
";. c #EFB51C",
":. c #F0B614",
">. c #F1BB10",
",. c #F0B41A",
"<. c #F2BD1C",
"1. c #E28323",
"2. c #E58C22",
"3. c #E3842B",
"4. c #E58B2B",
"5. c #FE8120",
"6. c #FF8D21",
"7. c #E79422",
"8. c #EE9322",
"9. c #E99B23",
"0. c #E7922B",
"q. c #E9962C",
"w. c #E99B2C",
"e. c #F39021",
"r. c #FE9021",
"t. c #E38133",
"y. c #E88C34",
"u. c #E58938",
"i. c #E89A31",
"p. c #EB953D",
"a. c #EBA323",
"s. c #EDAB22",
"d. c #EBA32C",
"f. c #EDAB2B",
"g. c #EEB221",
"h. c #EFB22C",
"j. c #F1B725",
"k. c #F1BB20",
"l. c #F0B52A",
"z. c #F1BA2A",
"x. c #EAA232",
"c. c #EFB330",
"v. c #F0B833",
"b. c #F2BE3C",
"n. c #F1C501",
"m. c #F2CB02",
"M. c #F2C40F",
"N. c #F3CE09",
"B. c #F3D003",
"V. c #F4D10C",
"C. c #F2C513",
"Z. c #F3CA12",
"A. c #F3C31D",
"S. c #F3CD1A",
"D. c #F4D213",
"F. c #F5D31C",
"G. c #F2C322",
"H. c #F3C52C",
"J. c #F4CC2C",
"K. c #F5D523",
"L. c #F5D826",
"P. c #F4D42D",
"I. c #F6D92C",
"U. c #F2C138",
"Y. c #F4C83B",
"T. c #F5D533",
"R. c #F6DB33",
"E. c #F6D73B",
"W. c #F6DC3A",
"Q. c #E4815D",
"!. c #EDAD45",
"~. c #E68765",
"^. c #E68966",
"/. c #E68C69",
"(. c #E89477",
"). c #F2C141",
"_. c #F6D743",
"`. c #F6D943",
"'. c #F7D448",
"]. c #FAD448",
"[. c #F7DC54",
"{. c #F7DE5E",
"}. c #F4CC69",
"|. c #F6D263",
" X c #F7DE63",
".X c #F7DD6D",
"XX c #F8DF68",
"oX c #F8E06A",
"OX c #F8E374",
"+X c #F8E57E",
"@X c #EA9E84",
"#X c #EFB884",
"$X c #F2C483",
"%X c #FADF83",
"&X c #F7D88E",
"*X c None",
/* pixels */
"*X*X*X*X*X*X*X*X*X*X*X*X*X*X*X*X*X*X*X*X*X*X*X*X*X*X*X*X*X*X*X*X*X*X*X*X*X*X*X*X*X*X*X*X*X*X*X*X*X*X*X*X*X*X*X*X*X*X*X*X*X*X*X*X",
"*X*X*X*X*X*X*X*X*X*X*X*X*X*X*X*X*X*X*X*X*X*X*X*X*X*X*X*X*X*X*X*X*X*X*X*X*X*X*X*X*X*X*X*X*X*X*X*X*X*X*X*X*X*X*X*X*X*X*X*X*X*X*X*X",
"*X*X*X*X*X*X*X*X*X*X*X*X*X*X*X*X*X*X*X*X*X*X*X*X*X*X*X*X*X*X*X*X*X*X*X*X*X*X*X*X*X*X*X*X*X*X*X*X*X*X*X*X*X*X*X*X*X*X*X*X*X*X*X*X",
"*X*X*X*X*X*X*X*X*X*X*X*X*X*X*X*X*X*X*X*X*X*X*X*X*X*X*X*X*X*X*X*X*X*X*X*X*X*X*X*X*X*X*X*X*X*X*X*X*X*X*X*X*X*X*X*X*X*X*X*X*X*X*X*X",
"*X*X*X*X*X*X*X*X*X*X*X*X*X*X*X*X*X*X*X*X*X*X*X*X*X*X*X*X*X*X*X*X*X*X*X*X*X*X*X*X*X*X*X*X*X*X*X*X*X*X*X*X*X*X*X*X*X*X*X*X*X*X*X*X",
"*X*X*X*X*X*X*X*X*X*X*X*X*X*X*X*X*X*X*X*X*X*X*X*X*X*X*X*X*X*X*X*X*X*X*X*X*X*X*X*X*X*X*X*X*X*X*X*X*X*X*X*X*X*X*X*X*X*X*X*X*X*X*X*X",
"*X*X*X*X*X*X*X*X*X*X*X*X*X*X*X*X*X*X*X*X*X*X*X*X*X*X*X*X*X*X*X*X*X*X*X*X*X*X*X*X*X*X*X*X*X*X*X*X*X*X*X*X*X*X*X*X*X*X*X*X*X*X*X*X",
"*X*X*X*X*X*X*X*X*X*X*X*X*X*X*X*X*X*X*X*X*X*X*X{.[.[.`.E.E.E.E.R.T.T.R.T.T.T.P.`.oX*X*X*X*X*X*X*X*X*X*X*X*X*X*X*X*X*X*X*X*X*X*X*X",
"*X*X*X*X*X*X*X*X*X*X*X*X*X*X*X*X*X*X*X*X[.D.B.V.D.D.F.K.K.K.K.L.L.L.L.L.L.L.L.F.B.B.E.*X*X*X*X*X*X*X*X*X*X*X*X*X*X*X*X*X*X*X*X*X",
"*X*X*X*X*X*X*X*X*X*X*X*X*X*X*X*X*X*X*XN.B.I.W.W.W.W.W.W.R.W.W.W.W.W.W.W.W.W.W.W.W.W.N.B.*X*X*X*X*X*X*X*X*X*X*X*X*X*X*X*X*X*X*X*X",
"*X*X*X*X*X*X*X*X*X*X*X*X*X*X*X*X*XOXm.L.W.R.R.R.R.R.R.R.R.R.R.R.R.R.R.R.R.R.R.R.R.R.W.L.m.*X*X*X*X*X*X*X*X*X*X*X*X*X*X*X*X*X*X*X",
"*X*X*X*X*X*X*X*X*X*X*X*X*X*X*X*X+Xm.P.R.R.R.R.K.F.D.V.V.V.V.V.V.V.V.V.V.V.V.V.K.R.R.I.R.I.m.*X*X*X*X*X*X*X*X*X*X*X*X*X*X*X*X*X*X",
"*X*X*X*X*X*X*X*X*X*X*X*X*X*X*X*Xn.P.P.P.R.S.B.L.W.[.{. X X X X X X XoXoXoXoX XP.m.K.E.P.T.S.Z.*X*X*X*X*X*X*X*X*X*X*X*X*X*X*X*X*X",
"*X*X*X*X*X*X*X*X*X*X*X*X*X*X*XS.S.J.J.P.n.J.*X*X*X*X*X*X*X*X*X*X*X*X*X*X*X*X*X*X*XM.Z.J.J.T.n..X*X*X*X*X*X*X*X*X*X*X*X*X*X*X*X*X",
"*X*X*X*X*X*X*X*X*X*X*X*X*X*X%X%.J.J.J.%.].*X*X*X*X*X*X*X*X*X*X*X*X*X*X*X*X*X*X*X*X*XM.C.J.H.S.C.*X*X*X*X*X*X*X*X*X*X*X*X*X*X*X*X",
"*X*X*X*X*X*X*X*X*X*X*X*X*X*XG.A.H.H.%.].*X*X*X*X*X*X*X*X*X*X*X*X*X*X*X*X*X*X*X*X*X*X*X%.H.H.H.%.*X*X*X*X*X*X*X*X*X*X*X*X*X*X*X*X",
"*X*X*X*X*X*X*X*X*X*X*X*X*X*X$.H.H.A.>.*X*X*X. + # # @ ; *X*X*X*X*X*X*X*X*X*X*X*X*X*X*X|.%.H.H.<.Y.*X*X*X*X*X*X*X*X*X*X*X*X*X*X*X",
"*X*X*X*X*X*X*X*X*X*X*X*X*X|.$.H.z.@.%X*X*X  : : ; ; # # *X*X*X*X*X*X*X*X*X*X*X*X*X*X*X*X+.@.&.<.k.*X*X*X*X*X*X*X*X*X*X*X*X*X*X*X",
"*X*X*X*X*X*X*X*X*X*X*X*X*XU.:.z.k.:.*X*X*X*X# ; ; ; ; ; *X*X*X*X*X*X*X*X*X*X*X*X*X*X*X*X*X&X}.).;.*X*X*X*X*X*X*X*X*X*X*X*X*X*X*X",
"*X*X*X*X*X*X*X*X*X*X*X*X*Xz.j.z.;.b.*X*X*X*X; ; ; ; ; ; *X*X*X*X*X*X*X*X*Xa.s.g.j.*X*X*X*X*X*X*X*X*X*X*X*X*X*X*X*X*X*X*X*X*X*X*X",
"*X*X*X*X*X*X*X*X*X*X*X*X*Xl.l.l.h.v.*X*X*X*X; ; ; ; ; ; *X*X*X*X*X*X*X*X*X*Xa.s.s.;.k.%.%.n.S.*X*X*X*X*X*X*X*X*X*X*X*X*X*X*X*X*X",
"*X*X*X*X*X*X*X*X*X*X*X*X*Xc.h.h.l.h.*X*X*X*X; ; ; ; ; ; *X*X*X*X*X*X*X*X*X*Xa.a.s.g.j.k.<.A.C.N.n.m.F.*X*X*X*X*X*X*X*X*X*X*X*X*X",
"*X*X*X*X*X*X*X*X*X*X*X*X*Xh.h.f.f.f.*X*X*X*X; ; ; ; ; ; *X*X*X*X*X*X*X*X*X*X*Xa.s.s.s.;.<.H.G.%.S.*X*X*X*X*X*X*X*X*X*X*X*X*X*X*X",
"*X*X*X*X*X*X*X*X*X*X*X*X*X..a.f.f.s.*X*X*X*X; ; ; ; ; ; *X*X*X*X*X*X*X*X*X*X*X9.=.d.s.g.j.#.$.*X*X*X*X*X*X*X*X*X*X*X*X*X*X*X*X*X",
"*X*X*X*X*X*X*X*X*X*X*X*X*X..f.f.f.a.*X*X*X*X; ; ; ; ; ; *X*X*X*X*X*X*X*X*X*X7.9.9.a.a.s.O.*X*X*X*X*X*X*X*X*X*X*X*X*X*X*X*X*X*X*X",
"*X*X*X*X*X*X*X*X*X*X*X*X*X=.d.d.x.d.*X*X*X*X; ; ; ; ; ; *X*X*X*X*X*X% *X*Xe.2.7.9.9.a.} *X*X*X!.[ *X*X*X*X*X*X*X*X*X*X*X*X*X*X*X",
"*X*X*X*X*X*X*X*X*X*X*X*X*Xd.d.d.d.w.*X*X*X*X; ; ; ; ; ; *X*X*X; : = $ *Xr.1.2.2.7.9.[ *X*X*X| } x.*X*X*X*X*X*X*X*X*X*X*X*X*X*X*X",
"*X*X*X*X*X*X*X*X*X*X*X*X*Xw.w.w.x.9.*X*X*X*X; ; ; ; ; ; *X; ; ; : o *X6.S 1.1.2.8.o.*X*X$X[ X.x.d.*X*X*X*X*X*X*X*X*X*X*X*X*X*X*X",
"*X*X*X*X*X*X*X*X*X*X*X*X*Xw.w.w.w.*X*X*X*X*X; ; : ; ; ; ; ; ; : % *X*XI A z P e.*X*X*X*X{ w.w.w.w.*X*X*X*X*X*X*X*X*X*X*X*X*X*X*X",
"*X*X*X*X*X*X*X*X*X*X*X*X*Xq.w.q.q.*X*X*X*X*X; ; ; ; ; ; ; ; ; = * *XT g A A 6.*X*X*X*X*Xi.q.w.q.q.*X*X*X*X*X*X*X*X*X*X*X*X*X*X*X",
"*X*X*X*X*X*X*X*X*X*X*X*X*X0.0.0.q.*X*X*X*X*X; ; ; ; ; ; ; ; ; $ *Xl f V V 5.*X*Xo *X*X*Xq.q.0.q.0.*X*X*X*X*X*X*X*X*X*X*X*X*X*X*X",
"*X*X*X*X*X*X*X*X*X*X*X*X*X0.0.0.0.*X*X*X*X*X; ; ; ; ; ; ; ; *X*X*Xp f f x *X*X$ : *X*X*Xq.0.0.0.0.*X*X*X*X*X*X*X*X*X*X*X*X*X*X*X",
"*X*X*X*X*X*X*X*X*X*X*X*X*X0.4.4.4.*X*X*X*X*X; ; ; ; ; ; ; *X*X*Xi r y j c *X$ : ; O *X*Xq.4.4.0.4.*X*X*X*X*X*X*X*X*X*X*X*X*X*X*X",
"*X*X*X*X*X*X*X*X*X*X*X*X*Xh 4.4.4.*X*X*X*X*X; ; ; ; ; ; *X*X*X*Xq r b k *Xo ; ; ;   *X*Xp.z 4.4.4.*X*X*X*X*X*X*X*X*X*X*X*X*X*X*X",
"*X*X*X*X*X*X*X*X*X*X*X*X*Xs 4.4.4.*X*X*X*X*X; ; ; ; ; ; *X*X*Xq q q a *X% - : ; ;   *X*Xp.z 3.3.3.*X*X*X*X*X*X*X*X*X*X*X*X*X*X*X",
"*X*X*X*X*X*X*X*X*X*X*X*X#Xd 3.3.3.*X*X*X*X*X; ; ; ; ; ; *X*X*Xw w w *X*X% : ; ; ; . *X*Xy.1.3.4.1.*X*X*X*X*X*X*X*X*X*X*X*X*X*X*X",
"*X*X*X*X*X*X*X*X*X*X*X*Xu.1.3.3.3.*X*X*X*X*X; ; ; ; ; = *X*X*Xq w i *X*X- ; ; ; ; O *X*X3.3.3.3.3.*X*X*X*X*X*X*X*X*X*X*X*X*X*X*X",
"*X*X*X*X*X*X*X*X*X*X*X*Xt.Y Y Y 3.*X*X*X*X*X; ; ; ; ; = *X*Xu v q *X*X*X: ; ; ; ; O *X*X3.Y Y 3.P *X*X*X*X*X*X*X*X*X*X*X*X*X*X*X",
"*X*X*X*X*X*X*X*X*X*X*X*Xt.P Y Y Y *X*X*X*X*X; ; ; : ; = *X*Xu w *X*X*X*X; ; ; ; ; O *X*XY Y Y Y U *X*X*X*X*X*X*X*X*X*X*X*X*X*X*X",
"*X*X*X*X*X*X*X*X*X*X*X*X! A U D U *X*X*X*X*X; ; ; # : - *X*Xi q *X*X*X*X; ; ; ; ; O *X*XY U U Y U *X*X*X*X*X*X*X*X*X*X*X*X*X*X*X",
"*X*X*X*X*X*X*X*X*X*X*X*X! A U U U *X*X*X*X*X; ; ; ; ; ; *X*X*X*X*X*X*X*X; ; ; ; ; *X*X*XU D U D U *X*X*X*X*X*X*X*X*X*X*X*X*X*X*X",
"*X*X*X*X*X*X*X*X*X*X*X*XQ D D D D *X*X*X*X*X; ; ; ; ; ; * *X*X*X*X*X*X; ; ; ; ; : *X*X*XD D D D Z *X*X*X*X*X*X*X*X*X*X*X*X*X*X*X",
"*X*X*X*X*X*X*X*X*X*X*X*XJ V Z D Z *X*X*X*X*X; ; ; ; ; ; : = *X*X*X*X; ; ; ; ; ; @ *X*X*Xf V Z Z V *X*X*X*X*X*X*X*X*X*X*X*X*X*X*X",
"*X*X*X*X*X*X*X*X*X*X*X*XZ Z Z C Z *X*X*X*X*X; ; ; ; ; ; ; ; - *X*X; ; ; ; ; ; : *X*X*X*X8 B Z Z B *X*X*X*X*X*X*X*X*X*X*X*X*X*X*X",
"*X*X*X*X*X*X*X*X*X*X*X*XB C C B n *X*X*X*X*X; ; ; ; ; ; ; ; ; ; ; ; ; ; ; ; ; *X*X*X*X*X4 V C C e *X*X*X*X*X*X*X*X*X*X*X*X*X*X*X",
"*X*X*X*X*X*X*X*X*X*X*X*XH n C C 4 *X*X*X*X*X> ; ; ; ; ; ; ; ; ; ; ; ; ; ; ; > *X*X*X*X/.4 C C n *X*X*X*X*X*X*X*X*X*X*X*X*X*X*X*X",
"*X*X*X*X*X*X*X*X*X*X*X*X*X4 M n 4 /.*X*X*X*X*X> ; ; ; ; ; ; ; ; ; ; ; ; : *X*X*X*X*X*X0 n n n e *X*X*X*X*X*X*X*X*X*X*X*X*X*X*X*X",
"*X*X*X*X*X*X*X*X*X*X*X*X*X< m M b 7 *X*X*X*X*X*X*X# # # # ; ; ; ; # @ X *X*X*X*X*X*X^.< M M 9 G *X*X*X*X*X*X*X*X*X*X*X*X*X*X*X*X",
"*X*X*X*X*X*X*X*X*X*X*X*X*Xm w m m 3 ~ *X*X*X*X*X*X*X*X*X          *X*X*X*X*X*X*X*X*X, m m m , *X*X*X*X*X*X*X*X*X*X*X*X*X*X*X*X*X",
"*X*X*X*X*X*X*X*X*X*X*X*X*X(., m m m , ' *X*X*X*X*X*X*X*X*X*X*X*X*X*X*X*X*X*X*X*X*X1 w M N e w *X*X*X*X*X*X*X*X*X*X*X*X*X*X*X*X*X",
"*X*X*X*X*X*X*X*X*X*X*X*X*X*X6 w m M m < ~ *X*X*X*X*X*X*X*X*X*X*X*X*X*X*X*X*X*XQ.2 b F N E , *X*X*X*X*X*X*X*X*X*X*X*X*X*X*X*X*X*X",
"*X*X*X*X*X*X*X*X*X*X*X*X*X*X@X< R N N R 9 6 ^ ^././.^.^.~.^.~.~.] ' ) ) ) W 0 9 R E R ^ 2 ^ *X*X*X*X*X*X*X*X*X*X*X*X*X*X*X*X*X*X",
"*X*X*X*X*X*X*X*X*X*X*X*X*X*X*XW 3 ^ R N E K t 0 0 0 0 0 0 0 0 0 t t t t b n R W E W ( 9 w *X*X*X*X*X*X*X*X*X*X*X*X*X*X*X*X*X*X*X",
"*X*X*X*X*X*X*X*X*X*X*X*X*X*X*X*Xv 5 ( W E E W W W W E W W W W W W W W W W W W W ( ( 5 w *X*X*X*X*X*X*X*X*X*X*X*X*X*X*X*X*X*X*X*X",
"*X*X*X*X*X*X*X*X*X*X*X*X*X*X*X*X*XW < M _ ( ( W W ( ( ( ( ( ( ( ( ( ( _ ( _ _ _ t < / *X*X*X*X*X*X*X*X*X*X*X*X*X*X*X*X*X*X*X*X*X",
"*X*X*X*X*X*X*X*X*X*X*X*X*X*X*X*X*X*X*Xv 1 0 M R K K C K K K M n p t t t t t 7 6 E *X*X*X*X*X*X*X*X*X*X*X*X*X*X*X*X*X*X*X*X*X*X*X",
"*X*X*X*X*X*X*X*X*X*X*X*X*X*X*X*X*X*X*X*X*X] ~ N N F F G G G ~ ~ ` ] ] ] ] ] *X*X*X*X*X*X*X*X*X*X*X*X*X*X*X*X*X*X*X*X*X*X*X*X*X*X",
"*X*X*X*X*X*X*X*X*X*X*X*X*X*X*X*X*X*X*X*X*X*X*X*X*X*X*X*X*X*X*X*X*X*X*X*X*X*X*X*X*X*X*X*X*X*X*X*X*X*X*X*X*X*X*X*X*X*X*X*X*X*X*X*X",
"*X*X*X*X*X*X*X*X*X*X*X*X*X*X*X*X*X*X*X*X*X*X*X*X*X*X*X*X*X*X*X*X*X*X*X*X*X*X*X*X*X*X*X*X*X*X*X*X*X*X*X*X*X*X*X*X*X*X*X*X*X*X*X*X",
"*X*X*X*X*X*X*X*X*X*X*X*X*X*X*X*X*X*X*X*X*X*X*X*X*X*X*X*X*X*X*X*X*X*X*X*X*X*X*X*X*X*X*X*X*X*X*X*X*X*X*X*X*X*X*X*X*X*X*X*X*X*X*X*X",
"*X*X*X*X*X*X*X*X*X*X*X*X*X*X*X*X*X*X*X*X*X*X*X*X*X*X*X*X*X*X*X*X*X*X*X*X*X*X*X*X*X*X*X*X*X*X*X*X*X*X*X*X*X*X*X*X*X*X*X*X*X*X*X*X",
"*X*X*X*X*X*X*X*X*X*X*X*X*X*X*X*X*X*X*X*X*X*X*X*X*X*X*X*X*X*X*X*X*X*X*X*X*X*X*X*X*X*X*X*X*X*X*X*X*X*X*X*X*X*X*X*X*X*X*X*X*X*X*X*X",
"*X*X*X*X*X*X*X*X*X*X*X*X*X*X*X*X*X*X*X*X*X*X*X*X*X*X*X*X*X*X*X*X*X*X*X*X*X*X*X*X*X*X*X*X*X*X*X*X*X*X*X*X*X*X*X*X*X*X*X*X*X*X*X*X",
"*X*X*X*X*X*X*X*X*X*X*X*X*X*X*X*X*X*X*X*X*X*X*X*X*X*X*X*X*X*X*X*X*X*X*X*X*X*X*X*X*X*X*X*X*X*X*X*X*X*X*X*X*X*X*X*X*X*X*X*X*X*X*X*X"
};
