/* XPM */
static char *_3d9243998e847439463fcc36ae1567b[] = {
/* columns rows colors chars-per-pixel */
"32 32 223 2 ",
"   c black",
".  c #010000",
"X  c #060405",
"o  c #110E0F",
"O  c #010714",
"+  c #050810",
"@  c #040C15",
"#  c #000A1F",
"$  c #05101C",
"%  c #06101E",
"&  c #151112",
"*  c #1D181A",
"=  c #1A1A1E",
"-  c #000E20",
";  c #001020",
":  c #001320",
">  c #001520",
",  c #001620",
"<  c #041720",
"1  c #0C1920",
"2  c #0D1920",
"3  c #171C20",
"4  c #191C20",
"5  c #1A1D20",
"6  c #1F1D20",
"7  c #1F1D21",
"8  c #1E1E20",
"9  c #201D21",
"0  c #201E20",
"q  c #211E20",
"w  c #211F20",
"e  c #221E20",
"r  c #231F20",
"t  c #221F21",
"y  c #251F20",
"u  c #212022",
"i  c #222023",
"p  c #242020",
"a  c #252020",
"s  c #252021",
"d  c #262020",
"f  c #272020",
"g  c #252122",
"h  c #262122",
"j  c #272223",
"k  c #4A2F20",
"l  c #5E3C20",
"z  c #D32E00",
"x  c #D42E00",
"c  c #D42F00",
"v  c #D33100",
"b  c #D43704",
"n  c #D43906",
"m  c #D73F08",
"M  c #864E20",
"N  c #D7420D",
"B  c #D94E0F",
"V  c #D94F0F",
"C  c #DA4810",
"Z  c #D94813",
"A  c #D94A15",
"S  c #DA4A15",
"D  c #DB4D17",
"F  c #DB4E17",
"G  c #DC4D15",
"H  c #DC4E16",
"J  c #DC4F16",
"K  c #DC4E17",
"L  c #DC4F18",
"P  c #DC5018",
"I  c #DD5018",
"U  c #DC5119",
"Y  c #DC511C",
"T  c #DD531C",
"R  c #DC541E",
"E  c #DD541E",
"W  c #DD541F",
"Q  c #DF541E",
"!  c #DD561F",
"~  c #DE571F",
"^  c #D3591F",
"/  c #DC5B1D",
"(  c #E0531C",
")  c #E0551F",
"_  c #F9531F",
"`  c #FD551F",
"'  c #FF551F",
"]  c #FE591F",
"[  c #E0750A",
"{  c #F6651F",
"}  c #FF601F",
"|  c #E27F1C",
" . c #FF751F",
".. c #DB5120",
"X. c #DC5826",
"o. c #E05620",
"O. c #DD6621",
"+. c #DE6A27",
"@. c #DD642A",
"#. c #DE6E2A",
"$. c #DF7328",
"%. c #DE6136",
"&. c #E07329",
"*. c #E0752E",
"=. c #E17A2A",
"-. c #E27A2C",
";. c #FD7A23",
":. c #FC7C20",
">. c #FF7C20",
",. c #FC772C",
"<. c #E0673B",
"1. c #F17B37",
"2. c #E16A40",
"3. c #E2744C",
"4. c #E57E59",
"5. c #E68D01",
"6. c #E99A0C",
"7. c #E3841B",
"8. c #E7951F",
"9. c #E99A1D",
"0. c #F29A1C",
"q. c #EBA200",
"w. c #EDAA00",
"e. c #EFAD03",
"r. c #FFA20D",
"t. c #EFB300",
"y. c #F0B200",
"u. c #F1B601",
"i. c #F0BA00",
"p. c #F2BC00",
"a. c #F8BD0C",
"s. c #EBA314",
"d. c #ECA519",
"f. c #EEAD1A",
"g. c #EEAF1B",
"h. c #EEAF1E",
"j. c #E48721",
"k. c #ED8E22",
"l. c #E38028",
"z. c #E3822C",
"x. c #F08620",
"c. c #FE8621",
"v. c #FA8C21",
"b. c #FF8A26",
"n. c #FF8528",
"m. c #FF8B2E",
"M. c #E79128",
"N. c #E7952E",
"B. c #E99A2B",
"V. c #EA9D29",
"C. c #FF9227",
"Z. c #F79D22",
"A. c #FF922F",
"S. c #FF9A29",
"D. c #E48533",
"F. c #FF8632",
"G. c #EA9C31",
"H. c #EBA726",
"J. c #ECA826",
"K. c #EBA22C",
"L. c #EBA12E",
"P. c #F8A522",
"I. c #FFA22B",
"U. c #FFA729",
"Y. c #FFAB2C",
"T. c #F2BC21",
"R. c #F0B62F",
"E. c #FFB129",
"W. c #F2BE29",
"Q. c #FFB82A",
"!. c #F1C506",
"~. c #F2C800",
"^. c #F3CA0F",
"/. c #F3D000",
"(. c #F4D205",
"). c #F4D30B",
"_. c #F4D30D",
"`. c #F4D30E",
"'. c #F4D40E",
"]. c #F4D40F",
"[. c #F3C312",
"{. c #F4D310",
"}. c #F4D311",
"|. c #F4D313",
" X c #F4D410",
".X c #F4D411",
"XX c #F6D411",
"oX c #F4D512",
"OX c #F5D413",
"+X c #F4D314",
"@X c #F7D515",
"#X c #F5D61C",
"$X c #FFC028",
"%X c #F6D82F",
"&X c #F4CD33",
"*X c #FFCE37",
"=X c #F5CE3A",
"-X c #F5D237",
";X c #F6DB33",
":X c #FAD830",
">X c #F5D53F",
",X c #FFE02D",
"<X c #E99D48",
"1X c #E5835F",
"2X c #FFB14D",
"3X c #FFB25B",
"4X c #ED8D6A",
"5X c #E98C6E",
"6X c #FB9C6D",
"7X c #E78E72",
"8X c #F09875",
"9X c #ECA866",
"0X c #F5CE43",
"qX c #FFD344",
"wX c #F6DB46",
"eX c #F7DE51",
"rX c #F3C56A",
"tX c #F8DE68",
"yX c #F3C575",
"uX c #F6D271",
"iX c #FAEA8C",
"pX c #FFFFA4",
"aX c None",
/* pixels */
"aXaXaXaXaXaXaXaXaXaXaXaXaXaXaXaXaXaXaXaXaXaXaXaXaXaXaXaXaXaXaXaX",
"aXaXaXaXaXaXaXaXaXaXaXaXaXaXaXaXaXaXaXaXaXaXaXaXaXaXaXaXaXaXaXaX",
"aXaXaXaXaXaXaXaXaXaXaXaXaXaXaXaXaXaXaXaXaXaXaXaXaXaXaXaXaXaXaXaX",
"aXaXaXaXaXaXaXaXaXaXaXaXaXaXaXaXaXaXaXaXaXaXaXaXaXaXaXaXaXaXaXaX",
"aXaXaXaXaXaXaXaXaXaX:XoXXXXX`.`.'.'.`.).`.eXaXaXaXaXaXaXaXaXaXaX",
"aXaXaXaXaXaXaXaXiX/.oXoXXXOXOX+X|.+X|.|.#X(.%XaXaXaXaXaXaXaXaXaX",
"aXaXaXaXaXaXaXaX~.!.,XpXaXaXaXaXaXaXaXaX>X^.~.tXaXaXaXaXaXaXaXaX",
"aXaXaXaXaXaXaX=Xi.:XaXaXaXaXaXaXaXaXaXaXaX0Xp.[.aXaXaXaXaXaXaXaX",
"aXaXaXaXaXaXaXu.a.aXaX      aXaXaXaXaXaXaXaXT.u.W.aXaXaXaXaXaXaX",
"aXaXaXaXaXaXuXe.qXaXaX& a a aXaXaXaXaXq.aXaXaXaXaXaXaXaXaXaXaXaX",
"aXaXaXaXaXaXf.R.*XaXaX7 r r aXaXaXaXaXH.g.t.&XwX:XaXaXaXaXaXaXaX",
"aXaXaXaXaXaXrXs.$XaXaX9 r a aXaXaXaXaXP.J.g.w.-XaXaXaXaXaXaXaXaX",
"aXaXaXaXaXaXyX6.Q.aXaX7 r r aXaXaXaXaXZ.9.d.aXaXaXaXaXaXaXaXaXaX",
"aXaXaXaXaXaXK.K.E.aXaX7 r r aX9 - M v.k.r.aXaXV.5.aXaXaXaXaXaXaX",
"aXaXaXaXaXaXG.B.Y.aXaX7 r r d ; k ;.c.x.aXaX0.8.aXaXaXaXaXaXaXaX",
"aXaXaXaXaXaXM.N.I.aXaX7 r d 2 aX^  .;.l aXaXU.N.aXaXaXaXaXaXaXaX",
"aXaXaXaXaXaX<X7.S.aXaX9 a 5 aXaX] { aX# O aX2Xj.aXaXaXaXaXaXaXaX",
"aXaXaXaXaXaX9X[ C.aXaX= 9 < aXaX_ aX> = + aX3X| aXaXaXaXaXaXaXaX",
"aXaXaXaXaXaXD.l.b.aXaX7 a > aX] ` aX> a $ aXA.z.aXaXaXaXaXaXaXaX",
"aXaXaXaXaXaX-.=.n.aXaXr u > aX} aXaX3 u $ aXm.=.aXaXaXaXaXaXaXaX",
"aXaXaXaXaXaX*.&.;.aXaXu p 2 aXaXaXaXh i @ aXF.&.aXaXaXaXaXaXaXaX",
"aXaXaXaXaXaX+.#.,.aXaXu u a = aXaXr a o aXaX1.O.aXaXaXaXaXaXaXaX",
"aXaXaXaXaXaX@.B 6XaXaXX j a w 7 r a * aXaXaXV / aXaXaXaXaXaXaXaX",
"aXaXaXaXaXaX1Xv <.aXaXaX            aXaXaX8Xv X.aXaXaXaXaXaXaXaX",
"aXaXaXaXaXaXaXx b 5XaXaXaXaXaXaXaXaXaXaXaXn x 7XaXaXaXaXaXaXaXaX",
"aXaXaXaXaXaXaX%.m N 4.aXaXaXaXaXaXaXaX4XA C ..aXaXaXaXaXaXaXaXaX",
"aXaXaXaXaXaXaXaXA L Q F Y Q ) ..( I I / K A aXaXaXaXaXaXaXaXaXaX",
"aXaXaXaXaXaXaXaXaX<.F K K L I U Q Q Q ..3.aXaXaXaXaXaXaXaXaXaXaX",
"aXaXaXaXaXaXaXaXaXaXaXaXaXaXaXaXaXaXaXaXaXaXaXaXaXaXaXaXaXaXaXaX",
"aXaXaXaXaXaXaXaXaXaXaXaXaXaXaXaXaXaXaXaXaXaXaXaXaXaXaXaXaXaXaXaX",
"aXaXaXaXaXaXaXaXaXaXaXaXaXaXaXaXaXaXaXaXaXaXaXaXaXaXaXaXaXaXaXaX",
"aXaXaXaXaXaXaXaXaXaXaXaXaXaXaXaXaXaXaXaXaXaXaXaXaXaXaXaXaXaXaXaX"
};
