/* XPM */
static char *a32dccb7ce814356b24a4a20a25937ac[] = {
/* columns rows colors chars-per-pixel */
"16 16 70 1 ",
"  c black",
". c #000207",
"X c #00030E",
"o c #000014",
"O c #000016",
"+ c #0E0D12",
"@ c #191516",
"# c #191A1E",
"$ c #000E20",
"% c #0A0D29",
"& c #041320",
"* c #001420",
"= c #0E1C24",
"- c #1A1920",
"; c #1E1C24",
": c #522917",
"> c #5B361E",
", c #562A20",
"< c #57473D",
"1 c #48555C",
"2 c #4E595F",
"3 c #D83E0D",
"4 c #804720",
"5 c #DE4711",
"6 c #ED5D17",
"7 c #FF6C1F",
"8 c #DF5120",
"9 c #DE5C30",
"0 c #FC7938",
"q c #FC831A",
"w c #FFB918",
"e c #FA822B",
"r c #EC9421",
"t c #FD8832",
"y c #FC9537",
"u c #FD9A3E",
"i c #FEA035",
"p c #FFA434",
"a c #FFAB30",
"s c #F4BF35",
"d c #F3CE04",
"f c #F7D31F",
"g c #FFCA2E",
"h c #FAD02D",
"j c #F6D92E",
"k c #F4C730",
"l c #F6DA35",
"z c #F9DD3B",
"x c #FFE323",
"c c #F2AE53",
"v c #F38A6B",
"b c #FF9369",
"n c #F69776",
"m c #FF9B70",
"M c #F49B78",
"N c #FFC241",
"B c #F6D849",
"V c #F2CF59",
"C c #FFE643",
"Z c #FDE65F",
"A c #F7DA63",
"S c #FDDE6D",
"D c #FFE967",
"F c #F9E777",
"G c #FFA582",
"H c #FFAB8A",
"J c #FFFD81",
"K c #F9F08D",
"L c #FEF38C",
"P c None",
/* pixels */
"PPPPPPPPPPPPPPPP",
"PPPPPPPPPPPPPPPP",
"PPPPPZCzljFPPPPP",
"PPPPfxDJLKdBPPPP",
"PPPShPPPPPPkPPPP",
"PPPgP% PPPsAPPPP",
"PPPNP@;PPrwVPPPP",
"PPPaPP-$4qPcPPPP",
"PPPiPP&,7:PpPPPP",
"PPPyP#*PPO<uPPPP",
"PPPeP+=PPO>tPPPP",
"PPP6PP . XP0PPPP",
"PPP9vPP12Pn8PPPP",
"PPPP3bHMGm5PPPPP",
"PPPPPPPPPPPPPPPP",
"PPPPPPPPPPPPPPPP"
};
